<svg xmlns="http://www.w3.org/2000/svg" xmlns:xlink="http://www.w3.org/1999/xlink" width="500" zoomAndPan="magnify" viewBox="0 0 375 374.999991" height="500" preserveAspectRatio="xMidYMid meet" version="1.0"><defs><clipPath id="fe0388deef"><path d="M 67.605469 67.605469 L 307.605469 67.605469 L 307.605469 307.605469 L 67.605469 307.605469 Z M 67.605469 67.605469 " clip-rule="nonzero"/></clipPath><clipPath id="78d73ddcdf"><path d="M 186 186 L 307.605469 186 L 307.605469 307.605469 L 186 307.605469 Z M 186 186 " clip-rule="nonzero"/></clipPath><clipPath id="f13cc67cb9"><path d="M 138.285156 138.285156 L 236.714844 138.285156 L 236.714844 236.714844 L 138.285156 236.714844 Z M 138.285156 138.285156 " clip-rule="nonzero"/></clipPath><clipPath id="b4762db35f"><path d="M 187.5 138.285156 C 160.320312 138.285156 138.285156 160.320312 138.285156 187.5 C 138.285156 214.679688 160.320312 236.714844 187.5 236.714844 C 214.679688 236.714844 236.714844 214.679688 236.714844 187.5 C 236.714844 160.320312 214.679688 138.285156 187.5 138.285156 Z M 187.5 138.285156 " clip-rule="nonzero"/></clipPath><clipPath id="ea8dce3c7b"><path d="M 0.285156 0.285156 L 98.714844 0.285156 L 98.714844 98.714844 L 0.285156 98.714844 Z M 0.285156 0.285156 " clip-rule="nonzero"/></clipPath><clipPath id="3c9a55ae6f"><path d="M 49.5 0.285156 C 22.320312 0.285156 0.285156 22.320312 0.285156 49.5 C 0.285156 76.679688 22.320312 98.714844 49.5 98.714844 C 76.679688 98.714844 98.714844 76.679688 98.714844 49.5 C 98.714844 22.320312 76.679688 0.285156 49.5 0.285156 Z M 49.5 0.285156 " clip-rule="nonzero"/></clipPath><clipPath id="a1ee161366"><rect x="0" width="99" y="0" height="99"/></clipPath></defs><rect x="-37.5" width="450" fill="#ffffff" y="-37.499999" height="449.999989" fill-opacity="1"/><rect x="-37.5" width="450" fill="#ffffff" y="-37.499999" height="449.999989" fill-opacity="1"/><g clip-path="url(#fe0388deef)"><path fill="#000000" d="M 67.605469 206.464844 L 67.605469 67.605469 L 307.445312 67.605469 L 307.445312 103.5 L 117.054688 307.394531 L 68.839844 307.394531 L 254.519531 102.214844 L 104.144531 102.214844 L 104.144531 172.339844 Z M 67.605469 206.464844 " fill-opacity="1" fill-rule="nonzero"/></g><g clip-path="url(#78d73ddcdf)"><path fill="#000000" d="M 307.605469 186.429688 L 307.605469 307.605469 L 186.429688 307.605469 Z M 307.605469 186.429688 " fill-opacity="1" fill-rule="nonzero"/></g><g clip-path="url(#f13cc67cb9)"><g clip-path="url(#b4762db35f)"><g transform="matrix(1, 0, 0, 1, 138, 138)"><g clip-path="url(#a1ee161366)"><g clip-path="url(#ea8dce3c7b)"><g clip-path="url(#3c9a55ae6f)"><path fill="#000000" d="M 0.285156 0.285156 L 98.714844 0.285156 L 98.714844 98.714844 L 0.285156 98.714844 Z M 0.285156 0.285156 " fill-opacity="1" fill-rule="nonzero"/></g></g></g></g></g></g></svg>