<svg xmlns="http://www.w3.org/2000/svg" xmlns:xlink="http://www.w3.org/1999/xlink" width="500" zoomAndPan="magnify" viewBox="0 0 375 374.999991" height="500" preserveAspectRatio="xMidYMid meet" version="1.0"><defs><clipPath id="8cfd6178a9"><path d="M 67.605469 67.605469 L 307.605469 67.605469 L 307.605469 307.605469 L 67.605469 307.605469 Z M 67.605469 67.605469 " clip-rule="nonzero"/></clipPath><clipPath id="0b8971d568"><path d="M 186 186 L 307.605469 186 L 307.605469 307.605469 L 186 307.605469 Z M 186 186 " clip-rule="nonzero"/></clipPath><clipPath id="f80eec904b"><path d="M 138.285156 138.285156 L 236.714844 138.285156 L 236.714844 236.714844 L 138.285156 236.714844 Z M 138.285156 138.285156 " clip-rule="nonzero"/></clipPath><clipPath id="1c4e2d476c"><path d="M 187.5 138.285156 C 160.320312 138.285156 138.285156 160.320312 138.285156 187.5 C 138.285156 214.679688 160.320312 236.714844 187.5 236.714844 C 214.679688 236.714844 236.714844 214.679688 236.714844 187.5 C 236.714844 160.320312 214.679688 138.285156 187.5 138.285156 Z M 187.5 138.285156 " clip-rule="nonzero"/></clipPath><clipPath id="ef175615f7"><path d="M 0.285156 0.285156 L 98.714844 0.285156 L 98.714844 98.714844 L 0.285156 98.714844 Z M 0.285156 0.285156 " clip-rule="nonzero"/></clipPath><clipPath id="8c17980f18"><path d="M 49.5 0.285156 C 22.320312 0.285156 0.285156 22.320312 0.285156 49.5 C 0.285156 76.679688 22.320312 98.714844 49.5 98.714844 C 76.679688 98.714844 98.714844 76.679688 98.714844 49.5 C 98.714844 22.320312 76.679688 0.285156 49.5 0.285156 Z M 49.5 0.285156 " clip-rule="nonzero"/></clipPath><clipPath id="c07e39594d"><rect x="0" width="99" y="0" height="99"/></clipPath></defs><g clip-path="url(#8cfd6178a9)"><path fill="#ffffff" d="M 67.605469 206.335938 L 67.605469 67.605469 L 307.222656 67.605469 L 307.222656 103.464844 L 117.007812 307.171875 L 68.839844 307.171875 L 254.34375 102.183594 L 104.109375 102.183594 L 104.109375 172.242188 Z M 67.605469 206.335938 " fill-opacity="1" fill-rule="nonzero"/></g><g clip-path="url(#0b8971d568)"><path fill="#ffffff" d="M 307.382812 186.320312 L 307.382812 307.382812 L 186.320312 307.382812 Z M 307.382812 186.320312 " fill-opacity="1" fill-rule="nonzero"/></g><g clip-path="url(#f80eec904b)"><g clip-path="url(#1c4e2d476c)"><g transform="matrix(1, 0, 0, 1, 138, 138)"><g clip-path="url(#c07e39594d)"><g clip-path="url(#ef175615f7)"><g clip-path="url(#8c17980f18)"><path fill="#ffffff" d="M 0.285156 0.285156 L 98.714844 0.285156 L 98.714844 98.714844 L 0.285156 98.714844 Z M 0.285156 0.285156 " fill-opacity="1" fill-rule="nonzero"/></g></g></g></g></g></g></svg>