<svg xmlns="http://www.w3.org/2000/svg" xmlns:xlink="http://www.w3.org/1999/xlink" width="500" zoomAndPan="magnify" viewBox="0 0 375 374.999991" height="500" preserveAspectRatio="xMidYMid meet" version="1.0"><defs><g/><clipPath id="e8a1bc1cbe"><rect x="0" width="194" y="0" height="33"/></clipPath><clipPath id="55e378e3fc"><rect x="0" width="140" y="0" height="19"/></clipPath><clipPath id="850b6085d8"><path d="M 131.214844 98.628906 L 243.714844 98.628906 L 243.714844 211.128906 L 131.214844 211.128906 Z M 131.214844 98.628906 " clip-rule="nonzero"/></clipPath><clipPath id="0e88148eb4"><path d="M 186 154 L 243.714844 154 L 243.714844 211.128906 L 186 211.128906 Z M 186 154 " clip-rule="nonzero"/></clipPath><clipPath id="61abc09cc7"><path d="M 164.398438 131.8125 L 210.601562 131.8125 L 210.601562 178.015625 L 164.398438 178.015625 Z M 164.398438 131.8125 " clip-rule="nonzero"/></clipPath><clipPath id="dba3acbecf"><path d="M 187.5 131.8125 C 174.742188 131.8125 164.398438 142.15625 164.398438 154.914062 C 164.398438 167.671875 174.742188 178.015625 187.5 178.015625 C 200.257812 178.015625 210.601562 167.671875 210.601562 154.914062 C 210.601562 142.15625 200.257812 131.8125 187.5 131.8125 Z M 187.5 131.8125 " clip-rule="nonzero"/></clipPath><clipPath id="64927aff88"><path d="M 0.398438 0.8125 L 46.601562 0.8125 L 46.601562 47.015625 L 0.398438 47.015625 Z M 0.398438 0.8125 " clip-rule="nonzero"/></clipPath><clipPath id="0680cfcf8c"><path d="M 23.5 0.8125 C 10.742188 0.8125 0.398438 11.15625 0.398438 23.914062 C 0.398438 36.671875 10.742188 47.015625 23.5 47.015625 C 36.257812 47.015625 46.601562 36.671875 46.601562 23.914062 C 46.601562 11.15625 36.257812 0.8125 23.5 0.8125 Z M 23.5 0.8125 " clip-rule="nonzero"/></clipPath><clipPath id="284effa295"><rect x="0" width="47" y="0" height="48"/></clipPath></defs><g transform="matrix(1, 0, 0, 1, 90, 224)"><g clip-path="url(#e8a1bc1cbe)"><g fill="#ffffff" fill-opacity="1"><g transform="translate(1.207554, 25.49075)"><g><path d="M 25.375 0 L 1.3125 0 L 1.3125 -5.140625 L 15.078125 -15.6875 L 1.3125 -15.6875 L 1.3125 -20.8125 L 25.375 -20.8125 L 25.375 -15.6875 L 11.59375 -5.140625 L 25.375 -5.140625 Z M 25.375 0 "/></g></g></g><g fill="#ffffff" fill-opacity="1"><g transform="translate(27.458807, 25.49075)"><g><path d="M 27.40625 0 L 2.328125 0 L 2.328125 -20.828125 L 26.265625 -20.828125 L 26.265625 -15.6875 L 11.0625 -15.6875 L 11.0625 -12.40625 L 23.90625 -12.40625 L 23.90625 -8.40625 L 11.0625 -8.40625 L 11.0625 -5.15625 L 27.40625 -5.15625 Z M 27.40625 0 "/></g></g></g><g fill="#ffffff" fill-opacity="1"><g transform="translate(55.59623, 25.49075)"><g><path d="M 33.234375 0 L 22.84375 0 L 11.0625 -14.09375 L 11.0625 0 L 2.328125 0 L 2.328125 -20.828125 L 12.71875 -20.828125 L 24.5 -6.8125 L 24.5 -20.828125 L 33.234375 -20.828125 Z M 33.234375 0 "/></g></g></g><g fill="#ffffff" fill-opacity="1"><g transform="translate(90.712488, 25.49075)"><g><path d="M 11.0625 0 L 2.328125 0 L 2.328125 -20.828125 L 11.0625 -20.828125 Z M 11.0625 0 "/></g></g></g><g fill="#ffc100" fill-opacity="1"><g transform="translate(103.675568, 25.49075)"><g><path d="M 11.0625 0 L 2.328125 0 L 2.328125 -20.828125 L 16.53125 -20.828125 C 19.9375 -20.828125 22.679688 -20.570312 24.765625 -20.0625 C 26.847656 -19.5625 28.367188 -18.765625 29.328125 -17.671875 C 30.285156 -16.585938 30.765625 -15.171875 30.765625 -13.421875 C 30.765625 -11.671875 30.285156 -10.25 29.328125 -9.15625 C 28.367188 -8.070312 26.847656 -7.273438 24.765625 -6.765625 C 22.679688 -6.265625 19.9375 -6.015625 16.53125 -6.015625 L 11.0625 -6.015625 Z M 11.0625 -11.15625 L 16.0625 -11.171875 C 17.445312 -11.171875 18.539062 -11.222656 19.34375 -11.328125 C 20.15625 -11.441406 20.75 -11.597656 21.125 -11.796875 C 21.507812 -12.003906 21.753906 -12.242188 21.859375 -12.515625 C 21.972656 -12.796875 22.03125 -13.097656 22.03125 -13.421875 C 22.03125 -13.742188 21.972656 -14.039062 21.859375 -14.3125 C 21.753906 -14.59375 21.507812 -14.832031 21.125 -15.03125 C 20.75 -15.238281 20.15625 -15.398438 19.34375 -15.515625 C 18.539062 -15.628906 17.445312 -15.6875 16.0625 -15.6875 L 11.0625 -15.6875 Z M 11.0625 -11.15625 "/></g></g></g><g fill="#ffc100" fill-opacity="1"><g transform="translate(135.164577, 25.49075)"><g><path d="M 15.75 0.453125 C 10.601562 0.453125 6.816406 -0.609375 4.390625 -2.734375 C 2.234375 -4.609375 1.15625 -7.164062 1.15625 -10.40625 C 1.15625 -13.644531 2.234375 -16.203125 4.390625 -18.078125 C 6.816406 -20.191406 10.601562 -21.25 15.75 -21.25 C 20.90625 -21.25 24.695312 -20.191406 27.125 -18.078125 C 29.269531 -16.203125 30.34375 -13.644531 30.34375 -10.40625 C 30.34375 -7.164062 29.269531 -4.609375 27.125 -2.734375 C 24.695312 -0.609375 20.90625 0.453125 15.75 0.453125 Z M 15.75 -5.140625 C 17.863281 -5.140625 19.414062 -5.742188 20.40625 -6.953125 C 21.195312 -7.929688 21.59375 -9.082031 21.59375 -10.40625 C 21.59375 -11.738281 21.195312 -12.882812 20.40625 -13.84375 C 19.414062 -15.070312 17.863281 -15.6875 15.75 -15.6875 C 13.644531 -15.6875 12.09375 -15.070312 11.09375 -13.84375 C 10.300781 -12.882812 9.90625 -11.738281 9.90625 -10.40625 C 9.90625 -9.082031 10.300781 -7.929688 11.09375 -6.953125 C 12.09375 -5.742188 13.644531 -5.140625 15.75 -5.140625 Z M 15.75 -5.140625 "/></g></g></g><g fill="#ffc100" fill-opacity="1"><g transform="translate(166.232817, 25.49075)"><g><path d="M 13.765625 0.453125 C 10.941406 0.453125 8.671875 0.148438 6.953125 -0.453125 C 5.234375 -1.054688 3.921875 -1.890625 3.015625 -2.953125 C 2.117188 -4.015625 1.515625 -5.238281 1.203125 -6.625 L 10.484375 -6.625 C 11.171875 -5.632812 12.265625 -5.140625 13.765625 -5.140625 C 15.265625 -5.140625 16.359375 -5.632812 17.046875 -6.625 C 17.097656 -6.71875 17.125 -6.800781 17.125 -6.875 C 17.125 -7.144531 16.78125 -7.34375 16.09375 -7.46875 C 15.40625 -7.601562 14.375 -7.703125 13 -7.765625 C 11.257812 -7.847656 9.4375 -8.03125 7.53125 -8.3125 C 3.28125 -8.976562 1.15625 -10.6875 1.15625 -13.4375 C 1.15625 -13.675781 1.171875 -13.925781 1.203125 -14.1875 C 1.515625 -15.570312 2.117188 -16.789062 3.015625 -17.84375 C 3.921875 -18.90625 5.234375 -19.738281 6.953125 -20.34375 C 8.671875 -20.945312 10.941406 -21.25 13.765625 -21.25 C 16.578125 -21.25 18.84375 -20.945312 20.5625 -20.34375 C 22.289062 -19.738281 23.601562 -18.90625 24.5 -17.84375 C 25.40625 -16.789062 26.015625 -15.570312 26.328125 -14.1875 L 17.046875 -14.1875 C 16.359375 -15.175781 15.265625 -15.671875 13.765625 -15.671875 C 12.265625 -15.671875 11.171875 -15.175781 10.484375 -14.1875 C 10.429688 -14.101562 10.40625 -14.03125 10.40625 -13.96875 C 10.40625 -13.738281 10.738281 -13.566406 11.40625 -13.453125 C 12.070312 -13.335938 13.050781 -13.238281 14.34375 -13.15625 C 15.632812 -13.082031 17.007812 -12.957031 18.46875 -12.78125 C 19.925781 -12.613281 21.289062 -12.3125 22.5625 -11.875 C 23.84375 -11.445312 24.835938 -10.8125 25.546875 -9.96875 C 26.109375 -9.320312 26.390625 -8.5 26.390625 -7.5 C 26.390625 -7.21875 26.367188 -6.925781 26.328125 -6.625 C 26.015625 -5.238281 25.40625 -4.015625 24.5 -2.953125 C 23.601562 -1.890625 22.289062 -1.054688 20.5625 -0.453125 C 18.84375 0.148438 16.578125 0.453125 13.765625 0.453125 Z M 13.765625 0.453125 "/></g></g></g></g></g><g transform="matrix(1, 0, 0, 1, 120, 259)"><g clip-path="url(#55e378e3fc)"><g fill="#ffffff" fill-opacity="1"><g transform="translate(1.61077, 13.071873)"><g><path d="M 0.515625 0 L 0.515625 -1.40625 L 4.453125 -6.828125 L 0.65625 -6.828125 L 0.65625 -8.59375 L 6.96875 -8.59375 L 6.96875 -7.1875 L 3.0625 -1.765625 L 7.078125 -1.765625 L 7.078125 0 Z M 0.515625 0 "/></g></g></g><g fill="#ffffff" fill-opacity="1"><g transform="translate(14.906099, 13.071873)"><g><path d="M 1.03125 0 L 1.03125 -8.59375 L 6.6875 -8.59375 L 6.6875 -6.953125 L 2.96875 -6.953125 L 2.96875 -5.171875 L 6.34375 -5.171875 L 6.34375 -3.53125 L 2.96875 -3.53125 L 2.96875 -1.65625 L 6.8125 -1.65625 L 6.8125 0 Z M 1.03125 0 "/></g></g></g><g fill="#ffffff" fill-opacity="1"><g transform="translate(28.054132, 13.071873)"><g><path d="M 1.03125 0 L 1.03125 -8.59375 L 4.703125 -8.59375 C 5.359375 -8.59375 5.925781 -8.472656 6.40625 -8.234375 C 6.894531 -8.003906 7.269531 -7.664062 7.53125 -7.21875 C 7.789062 -6.78125 7.921875 -6.253906 7.921875 -5.640625 C 7.921875 -5.003906 7.773438 -4.457031 7.484375 -4 C 7.203125 -3.550781 6.800781 -3.210938 6.28125 -2.984375 L 8.0625 0 L 5.8125 0 L 4.28125 -2.671875 L 2.984375 -2.671875 L 2.984375 0 Z M 2.953125 -4.328125 L 4.453125 -4.328125 C 4.929688 -4.328125 5.296875 -4.4375 5.546875 -4.65625 C 5.804688 -4.882812 5.9375 -5.207031 5.9375 -5.625 C 5.9375 -6.039062 5.804688 -6.359375 5.546875 -6.578125 C 5.296875 -6.804688 4.929688 -6.921875 4.453125 -6.921875 L 2.953125 -6.921875 Z M 2.953125 -4.328125 "/></g></g></g><g fill="#ffffff" fill-opacity="1"><g transform="translate(42.405041, 13.071873)"><g><path d="M 5.109375 0.171875 C 4.210938 0.171875 3.414062 -0.015625 2.71875 -0.390625 C 2.03125 -0.773438 1.492188 -1.300781 1.109375 -1.96875 C 0.722656 -2.644531 0.53125 -3.421875 0.53125 -4.296875 C 0.53125 -5.171875 0.722656 -5.941406 1.109375 -6.609375 C 1.492188 -7.285156 2.03125 -7.8125 2.71875 -8.1875 C 3.414062 -8.570312 4.210938 -8.765625 5.109375 -8.765625 C 6.003906 -8.765625 6.796875 -8.570312 7.484375 -8.1875 C 8.171875 -7.8125 8.710938 -7.285156 9.109375 -6.609375 C 9.503906 -5.941406 9.703125 -5.171875 9.703125 -4.296875 C 9.703125 -3.421875 9.503906 -2.644531 9.109375 -1.96875 C 8.710938 -1.300781 8.171875 -0.773438 7.484375 -0.390625 C 6.796875 -0.015625 6.003906 0.171875 5.109375 0.171875 Z M 2.515625 -4.296875 C 2.515625 -3.785156 2.625 -3.332031 2.84375 -2.9375 C 3.070312 -2.539062 3.378906 -2.234375 3.765625 -2.015625 C 4.148438 -1.796875 4.597656 -1.6875 5.109375 -1.6875 C 5.617188 -1.6875 6.066406 -1.796875 6.453125 -2.015625 C 6.847656 -2.234375 7.15625 -2.539062 7.375 -2.9375 C 7.59375 -3.332031 7.703125 -3.785156 7.703125 -4.296875 C 7.703125 -4.816406 7.59375 -5.269531 7.375 -5.65625 C 7.15625 -6.050781 6.847656 -6.359375 6.453125 -6.578125 C 6.066406 -6.804688 5.617188 -6.921875 5.109375 -6.921875 C 4.597656 -6.921875 4.148438 -6.804688 3.765625 -6.578125 C 3.378906 -6.359375 3.070312 -6.050781 2.84375 -5.65625 C 2.625 -5.269531 2.515625 -4.816406 2.515625 -4.296875 Z M 2.515625 -4.296875 "/></g></g></g><g fill="#ffffff" fill-opacity="1"><g transform="translate(58.339322, 13.071873)"><g/></g></g><g fill="#ffffff" fill-opacity="1"><g transform="translate(66.933609, 13.071873)"><g><path d="M 1.03125 0 L 1.03125 -8.59375 L 6.6875 -8.59375 L 6.6875 -6.953125 L 2.96875 -6.953125 L 2.96875 -5.171875 L 6.34375 -5.171875 L 6.34375 -3.53125 L 2.96875 -3.53125 L 2.96875 -1.65625 L 6.8125 -1.65625 L 6.8125 0 Z M 1.03125 0 "/></g></g></g><g fill="#ffffff" fill-opacity="1"><g transform="translate(80.081642, 13.071873)"><g><path d="M 1.03125 0 L 1.03125 -8.59375 L 4.703125 -8.59375 C 5.359375 -8.59375 5.925781 -8.472656 6.40625 -8.234375 C 6.894531 -8.003906 7.269531 -7.664062 7.53125 -7.21875 C 7.789062 -6.78125 7.921875 -6.253906 7.921875 -5.640625 C 7.921875 -5.003906 7.773438 -4.457031 7.484375 -4 C 7.203125 -3.550781 6.800781 -3.210938 6.28125 -2.984375 L 8.0625 0 L 5.8125 0 L 4.28125 -2.671875 L 2.984375 -2.671875 L 2.984375 0 Z M 2.953125 -4.328125 L 4.453125 -4.328125 C 4.929688 -4.328125 5.296875 -4.4375 5.546875 -4.65625 C 5.804688 -4.882812 5.9375 -5.207031 5.9375 -5.625 C 5.9375 -6.039062 5.804688 -6.359375 5.546875 -6.578125 C 5.296875 -6.804688 4.929688 -6.921875 4.453125 -6.921875 L 2.953125 -6.921875 Z M 2.953125 -4.328125 "/></g></g></g><g fill="#ffffff" fill-opacity="1"><g transform="translate(94.432552, 13.071873)"><g><path d="M 1.03125 0 L 1.03125 -8.59375 L 4.703125 -8.59375 C 5.359375 -8.59375 5.925781 -8.472656 6.40625 -8.234375 C 6.894531 -8.003906 7.269531 -7.664062 7.53125 -7.21875 C 7.789062 -6.78125 7.921875 -6.253906 7.921875 -5.640625 C 7.921875 -5.003906 7.773438 -4.457031 7.484375 -4 C 7.203125 -3.550781 6.800781 -3.210938 6.28125 -2.984375 L 8.0625 0 L 5.8125 0 L 4.28125 -2.671875 L 2.984375 -2.671875 L 2.984375 0 Z M 2.953125 -4.328125 L 4.453125 -4.328125 C 4.929688 -4.328125 5.296875 -4.4375 5.546875 -4.65625 C 5.804688 -4.882812 5.9375 -5.207031 5.9375 -5.625 C 5.9375 -6.039062 5.804688 -6.359375 5.546875 -6.578125 C 5.296875 -6.804688 4.929688 -6.921875 4.453125 -6.921875 L 2.953125 -6.921875 Z M 2.953125 -4.328125 "/></g></g></g><g fill="#ffffff" fill-opacity="1"><g transform="translate(108.783461, 13.071873)"><g><path d="M 5.109375 0.171875 C 4.210938 0.171875 3.414062 -0.015625 2.71875 -0.390625 C 2.03125 -0.773438 1.492188 -1.300781 1.109375 -1.96875 C 0.722656 -2.644531 0.53125 -3.421875 0.53125 -4.296875 C 0.53125 -5.171875 0.722656 -5.941406 1.109375 -6.609375 C 1.492188 -7.285156 2.03125 -7.8125 2.71875 -8.1875 C 3.414062 -8.570312 4.210938 -8.765625 5.109375 -8.765625 C 6.003906 -8.765625 6.796875 -8.570312 7.484375 -8.1875 C 8.171875 -7.8125 8.710938 -7.285156 9.109375 -6.609375 C 9.503906 -5.941406 9.703125 -5.171875 9.703125 -4.296875 C 9.703125 -3.421875 9.503906 -2.644531 9.109375 -1.96875 C 8.710938 -1.300781 8.171875 -0.773438 7.484375 -0.390625 C 6.796875 -0.015625 6.003906 0.171875 5.109375 0.171875 Z M 2.515625 -4.296875 C 2.515625 -3.785156 2.625 -3.332031 2.84375 -2.9375 C 3.070312 -2.539062 3.378906 -2.234375 3.765625 -2.015625 C 4.148438 -1.796875 4.597656 -1.6875 5.109375 -1.6875 C 5.617188 -1.6875 6.066406 -1.796875 6.453125 -2.015625 C 6.847656 -2.234375 7.15625 -2.539062 7.375 -2.9375 C 7.59375 -3.332031 7.703125 -3.785156 7.703125 -4.296875 C 7.703125 -4.816406 7.59375 -5.269531 7.375 -5.65625 C 7.15625 -6.050781 6.847656 -6.359375 6.453125 -6.578125 C 6.066406 -6.804688 5.617188 -6.921875 5.109375 -6.921875 C 4.597656 -6.921875 4.148438 -6.804688 3.765625 -6.578125 C 3.378906 -6.359375 3.070312 -6.050781 2.84375 -5.65625 C 2.625 -5.269531 2.515625 -4.816406 2.515625 -4.296875 Z M 2.515625 -4.296875 "/></g></g></g><g fill="#ffffff" fill-opacity="1"><g transform="translate(124.717742, 13.071873)"><g><path d="M 1.03125 0 L 1.03125 -8.59375 L 4.703125 -8.59375 C 5.359375 -8.59375 5.925781 -8.472656 6.40625 -8.234375 C 6.894531 -8.003906 7.269531 -7.664062 7.53125 -7.21875 C 7.789062 -6.78125 7.921875 -6.253906 7.921875 -5.640625 C 7.921875 -5.003906 7.773438 -4.457031 7.484375 -4 C 7.203125 -3.550781 6.800781 -3.210938 6.28125 -2.984375 L 8.0625 0 L 5.8125 0 L 4.28125 -2.671875 L 2.984375 -2.671875 L 2.984375 0 Z M 2.953125 -4.328125 L 4.453125 -4.328125 C 4.929688 -4.328125 5.296875 -4.4375 5.546875 -4.65625 C 5.804688 -4.882812 5.9375 -5.207031 5.9375 -5.625 C 5.9375 -6.039062 5.804688 -6.359375 5.546875 -6.578125 C 5.296875 -6.804688 4.929688 -6.921875 4.453125 -6.921875 L 2.953125 -6.921875 Z M 2.953125 -4.328125 "/></g></g></g></g></g><g clip-path="url(#850b6085d8)"><path fill="#ffffff" d="M 131.214844 163.753906 L 131.214844 98.628906 L 243.699219 98.628906 L 243.699219 115.464844 L 154.40625 211.089844 L 131.792969 211.089844 L 218.875 114.859375 L 148.351562 114.859375 L 148.351562 147.75 Z M 131.214844 163.753906 " fill-opacity="1" fill-rule="nonzero"/></g><g clip-path="url(#0e88148eb4)"><path fill="#ffffff" d="M 243.773438 154.355469 L 243.773438 211.1875 L 186.941406 211.1875 Z M 243.773438 154.355469 " fill-opacity="1" fill-rule="nonzero"/></g><g clip-path="url(#61abc09cc7)"><g clip-path="url(#dba3acbecf)"><g transform="matrix(1, 0, 0, 1, 164, 131)"><g clip-path="url(#284effa295)"><g clip-path="url(#64927aff88)"><g clip-path="url(#0680cfcf8c)"><path fill="#ffffff" d="M 0.398438 0.8125 L 46.601562 0.8125 L 46.601562 47.015625 L 0.398438 47.015625 Z M 0.398438 0.8125 " fill-opacity="1" fill-rule="nonzero"/></g></g></g></g></g></g></svg>